<svg width="4250" height="932" viewBox="0 0 4250 932" fill="none" xmlns="http://www.w3.org/2000/svg">
<mask id="mask0" mask-type="alpha" maskUnits="userSpaceOnUse" x="0" y="0" width="4250" height="932">
<rect width="4250" height="932" fill="#5964E0"/>
</mask>
<g mask="url(#mask0)">
<rect x="-134" y="-100" width="4528" height="1168" fill="#5964E0"/>
<path d="M2671.33 348.94L3181.38 -135.609C3259.37 -209.704 3387.71 -180.028 3425.26 -79.2152L3894.5 1180.61C3947.49 1322.87 3779.85 1444.8 3660.83 1350.58L2681.53 575.297C2609.99 518.657 2605.17 411.79 2671.33 348.94Z" fill="#6670E3" stroke="#6670E3"/>
<path d="M1026 932L0 366V932H1026Z" fill="#6670E3" stroke="#6670E3"/>
<path d="M1062 209.526V-162.834C1062 -290.504 1165.5 -394 1293.17 -394H1796.66C2019.6 -394 2113.36 -109.537 1934.11 23.0262L1430.62 395.386C1278.04 508.229 1062 399.302 1062 209.526Z" fill="#6670E3" stroke="#6670E3" stroke-width="2.88957"/>
</g>
</svg>
