<svg width="21" height="22" viewBox="0 0 21 22" fill="none" xmlns="http://www.w3.org/2000/svg">
<path d="M16.0512 5.62353L14.8565 6.81824C13.8889 5.85064 12.6159 5.24843 11.2541 5.11424C9.8924 4.98005 8.52626 5.32217 7.38849 6.08231C6.25073 6.84245 5.41172 7.97358 5.01444 9.28296C4.61716 10.5924 4.68618 11.999 5.20974 13.2632C5.7333 14.5274 6.679 15.571 7.88572 16.2161C9.09244 16.8612 10.4855 17.0679 11.8276 16.801C13.1696 16.5342 14.3776 15.8102 15.2458 14.7526C16.1139 13.6949 16.5884 12.3689 16.5885 11.0006H18.2784C18.2784 12.7599 17.6683 14.4647 16.5522 15.8247C15.4362 17.1846 13.8831 18.1155 12.1576 18.4587C10.4321 18.8019 8.64097 18.5362 7.08942 17.7069C5.53787 16.8775 4.32188 15.5359 3.64865 13.9105C2.97541 12.2851 2.88657 10.4766 3.39728 8.79307C3.90799 7.10954 4.98663 5.65517 6.44944 4.67778C7.91224 3.70038 9.66868 3.26042 11.4195 3.43287C13.1703 3.60533 14.8072 4.37951 16.0512 5.62353V5.62353Z" fill="white"/>
</svg>
