<svg width="18" height="23" viewBox="0 0 18 23" fill="none" xmlns="http://www.w3.org/2000/svg">
<path d="M9 0.82666C13.9708 0.82666 18 4.85589 18 9.82666C18 13.6297 15.3277 17.7744 10.0523 22.3048C9.75897 22.5568 9.38498 22.6952 8.99827 22.6949C8.61157 22.6945 8.23781 22.5555 7.94492 22.303L7.596 22.0002C2.55415 17.5879 0 13.5448 0 9.82666C0 4.85589 4.02923 0.82666 9 0.82666ZM9 6.36512C8.08194 6.36512 7.20149 6.72982 6.55232 7.37898C5.90316 8.02815 5.53846 8.9086 5.53846 9.82666C5.53846 10.7447 5.90316 11.6252 6.55232 12.2743C7.20149 12.9235 8.08194 13.2882 9 13.2882C9.91806 13.2882 10.7985 12.9235 11.4477 12.2743C12.0968 11.6252 12.4615 10.7447 12.4615 9.82666C12.4615 8.9086 12.0968 8.02815 11.4477 7.37898C10.7985 6.72982 9.91806 6.36512 9 6.36512Z" fill="#5964E0"/>
</svg>
