<svg width="70" height="79" viewBox="0 0 70 79" fill="none" xmlns="http://www.w3.org/2000/svg">
<path d="M6.69571 50.0718V53.1688C6.69596 53.8265 6.85507 54.4743 7.15952 55.0573C7.46398 55.6406 7.90472 56.1412 8.44427 56.5174L20.7193 44.242L17.3162 40.8388C17.2252 40.7479 17.1171 40.6757 16.9981 40.6264C16.8792 40.5771 16.7517 40.5517 16.623 40.5517C16.4942 40.5517 16.3667 40.5771 16.2478 40.6264C16.1288 40.6757 16.0208 40.7479 15.9297 40.8388L6.69571 50.0718Z" fill="url(#paint0_linear)"/>
<path d="M16.6219 36.8206C17.0334 36.8196 17.441 36.8999 17.8212 37.0577C18.2014 37.2152 18.5465 37.4466 18.8365 37.7383L23.0284 41.9301L31.6351 33.3234C32.5278 32.4322 33.7377 31.9316 34.9992 31.9316C36.2605 31.9316 37.4705 32.4322 38.3632 33.3234L50.3304 45.2906L54.0291 41.5919C54.617 41.0054 55.4131 40.6761 56.2437 40.6761C57.074 40.6761 57.8704 41.0054 58.458 41.5919L63.3029 46.4408V25.2025C63.3029 24.4854 63.1141 23.7809 62.7551 23.1598C62.3965 22.5388 61.8808 22.0231 61.2598 21.6645L37.0419 7.682C36.4208 7.32337 35.716 7.13456 34.9988 7.13456C34.2815 7.13456 33.5769 7.32337 32.9557 7.682L8.73736 21.6645C8.1163 22.0231 7.60052 22.5388 7.24189 23.1598C6.88326 23.7809 6.69442 24.4854 6.69427 25.2025V45.4495L14.4059 37.7379C14.6962 37.4459 15.0416 37.2145 15.422 37.0574C15.8024 36.8999 16.2102 36.8192 16.6219 36.8206Z" fill="url(#paint1_linear)"/>
<path d="M52.6408 47.6032L61.5529 56.517C62.0925 56.1408 62.5332 55.6399 62.8376 55.0569C63.1419 54.474 63.3008 53.8262 63.3011 53.1685V51.062L56.9341 44.695C56.7502 44.5111 56.5008 44.4079 56.2409 44.4079C55.9805 44.4079 55.7312 44.5111 55.5473 44.695L52.6408 47.6032Z" fill="url(#paint2_linear)"/>
<path d="M50.3297 49.9133L48.0192 47.6032L36.052 35.6364C35.7727 35.3574 35.3944 35.2009 34.9997 35.2009C34.605 35.2009 34.2265 35.3574 33.9473 35.6364L25.3406 44.243L23.0298 46.5538L11.362 58.2202L32.9553 70.688C33.5765 71.0466 34.2812 71.2354 34.9984 71.2354C35.7156 71.2354 36.4205 71.0466 37.0415 70.688L58.6348 58.2202L50.3297 49.9133Z" fill="url(#paint3_linear)"/>
<path d="M34.9995 3.37884C35.8005 3.37862 36.5878 3.58942 37.2814 3.99001L64.3378 19.6112C65.0318 20.0118 65.6077 20.5879 66.0082 21.2818C66.4087 21.9756 66.6198 22.7627 66.6198 23.5638V54.8061C66.6198 55.6072 66.4087 56.3941 66.0082 57.088C65.6077 57.7816 65.0318 58.3579 64.3378 58.7584L37.2814 74.3796C36.5874 74.7801 35.8005 74.9911 34.9993 74.9911C34.1981 74.9911 33.411 74.7801 32.7172 74.3796L5.66076 58.7584C4.96695 58.3579 4.3908 57.7816 3.99025 57.088C3.5897 56.3941 3.37882 55.6072 3.37884 54.8061V23.5638C3.37883 22.7627 3.5897 21.9756 3.99025 21.2818C4.39084 20.5879 4.96695 20.0118 5.66076 19.6112L32.7172 3.99001C33.4111 3.58946 34.1983 3.37866 34.9995 3.37884ZM34.9995 0C33.6053 0.000544465 32.2358 0.367526 31.0281 1.06417L3.97134 16.6853C2.7654 17.3841 1.76394 18.3871 1.06704 19.5942C0.370151 20.8013 0.00221429 22.1701 0 23.5638V54.8061C0.00228554 56.2 0.370295 57.5689 1.06725 58.7757C1.7642 59.9829 2.76571 60.9858 3.97169 61.6846L31.0281 77.3058C32.2356 78.0029 33.6053 78.3696 34.9995 78.3696C36.3937 78.3696 37.7633 78.0029 38.9708 77.3058L66.0273 61.6846C67.2334 60.9861 68.2352 59.9829 68.9323 58.7761C69.6294 57.5689 69.9975 56.2 70 54.8061V23.5638C69.9979 22.1701 69.6298 20.8013 68.933 19.5942C68.2359 18.3872 67.2344 17.3841 66.0287 16.6853L38.9722 1.06417C37.7647 0.367572 36.3951 0.000594013 35.0009 0H34.9995Z" fill="url(#paint4_linear)"/>
<defs>
<linearGradient id="paint0_linear" x1="13.7075" y1="7.63026" x2="13.7075" y2="71.4932" gradientUnits="userSpaceOnUse">
<stop offset="0.004" stop-color="#4C99D4"/>
<stop offset="0.5" stop-color="#56C3E6"/>
<stop offset="1" stop-color="#B0D8BC"/>
</linearGradient>
<linearGradient id="paint1_linear" x1="34.9986" y1="7.64554" x2="34.9986" y2="71.5182" gradientUnits="userSpaceOnUse">
<stop offset="0.004" stop-color="#4C99D4"/>
<stop offset="0.5" stop-color="#56C3E6"/>
<stop offset="1" stop-color="#B0D8BC"/>
</linearGradient>
<linearGradient id="paint2_linear" x1="57.9711" y1="7.63189" x2="57.9711" y2="71.4964" gradientUnits="userSpaceOnUse">
<stop offset="0.004" stop-color="#4C99D4"/>
<stop offset="0.5" stop-color="#56C3E6"/>
<stop offset="1" stop-color="#B0D8BC"/>
</linearGradient>
<linearGradient id="paint3_linear" x1="34.9984" y1="7.63449" x2="34.9984" y2="71.4876" gradientUnits="userSpaceOnUse">
<stop offset="0.004" stop-color="#4C99D4"/>
<stop offset="0.5" stop-color="#56C3E6"/>
<stop offset="1" stop-color="#B0D8BC"/>
</linearGradient>
<linearGradient id="paint4_linear" x1="35" y1="78.3696" x2="35" y2="0" gradientUnits="userSpaceOnUse">
<stop stop-color="#B0D8BC"/>
<stop offset="0.5" stop-color="#56C3E6"/>
<stop offset="0.996" stop-color="#4C99D4"/>
</linearGradient>
</defs>
</svg>
