<svg width="22" height="22" viewBox="0 0 22 22" fill="none" xmlns="http://www.w3.org/2000/svg">
<path d="M13.0096 14.9511C11.3263 16.148 9.25486 16.6687 7.20573 16.4102C5.15661 16.1516 3.2794 15.1326 1.94612 13.5551C0.612852 11.9776 -0.0791679 9.9567 0.00721302 7.89296C0.093594 5.82923 0.952071 3.87326 2.41251 2.41271C3.87294 0.95215 5.82875 0.0936017 7.89231 0.00721362C9.95587 -0.0791745 11.9766 0.612903 13.554 1.94629C15.1313 3.27967 16.1503 5.15704 16.4088 7.20633C16.6673 9.25563 16.1466 11.3273 14.9498 13.0107L21.5631 19.6226C21.6979 19.7483 21.8061 19.8999 21.8812 20.0683C21.9562 20.2367 21.9965 20.4185 21.9998 20.6029C22.003 20.7872 21.9691 20.9703 21.9001 21.1413C21.831 21.3122 21.7283 21.4675 21.5979 21.5979C21.4676 21.7283 21.3123 21.831 21.1413 21.9001C20.9704 21.9691 20.7873 22.003 20.603 21.9998C20.4187 21.9965 20.2369 21.9562 20.0685 21.8811C19.9001 21.8061 19.7485 21.6979 19.6228 21.563L13.0096 14.9511ZM13.729 8.23662C13.729 6.78015 13.1504 5.38332 12.1206 4.35344C11.0908 3.32356 9.69412 2.74497 8.23777 2.74497C6.78141 2.74497 5.38471 3.32356 4.35491 4.35344C3.32511 5.38332 2.74658 6.78015 2.74658 8.23662C2.74658 9.6931 3.32511 11.0899 4.35491 12.1198C5.38471 13.1497 6.78141 13.7283 8.23777 13.7283C9.69412 13.7283 11.0908 13.1497 12.1206 12.1198C13.1504 11.0899 13.729 9.6931 13.729 8.23662Z" fill="#5964E0"/>
</svg>
